<svg width="50" height="50" viewBox="0 0 50 50" fill="none" xmlns="http://www.w3.org/2000/svg">
<path fill-rule="evenodd" clip-rule="evenodd" d="M45.5399 14.8158L43.9004 16.4522C40.3484 13.3618 35.7939 11.6334 31.0584 11.6334C27.87 11.6334 24.6834 12.4516 21.9511 13.9056L28.8725 6.99697C29.4189 7.36004 30.0559 7.54243 30.6946 7.54243C31.6048 7.54243 32.5168 7.17936 33.2442 6.45151C34.7009 4.99752 34.7009 2.72363 33.2442 1.26963C32.515 0.541783 31.6048 0.178711 30.6946 0.178711C29.7844 0.178711 28.8725 0.541783 28.145 1.26963C26.9615 2.54294 26.7788 4.36001 27.5985 5.72366L18.855 14.451L17.2156 12.8146L12.7533 17.2687L14.3927 18.9051L5.46642 27.8148C4.91995 27.4517 4.28297 27.2694 3.64428 27.2694C2.73407 27.2694 1.82214 27.6324 1.09465 28.3603C-0.362036 29.8143 -0.362036 32.0882 1.09465 33.5422C1.82385 34.178 2.73407 34.5427 3.64428 34.5427C4.5545 34.5427 5.46642 34.1797 6.19391 33.4518C7.37737 32.2706 7.56009 30.4518 6.74038 28.9978L13.6618 22.0892C10.0192 29.0898 10.8389 37.8172 16.2114 43.998L14.572 45.7247L19.1265 50.1787L23.5888 45.7247L19.1265 41.2707L17.5776 42.8167C12.2956 36.6342 12.0224 27.7262 16.4847 21.1807L17.2139 21.9085L21.7683 17.4545L20.9486 16.7266C23.8637 14.6351 27.4158 13.5442 31.0584 13.5442C35.3396 13.5442 39.3459 15.0902 42.6248 17.8175L40.9854 19.3636L45.5399 23.8176L50.0021 19.3636L45.5399 14.8175V14.8158ZM21.0392 45.7248L19.1265 47.6339L17.2139 45.7248L19.1265 43.8157L21.0392 45.7248V45.7248ZM29.419 2.63335C29.7827 2.27028 30.2387 2.08789 30.6946 2.08789C31.1506 2.08789 31.6048 2.27028 31.9703 2.63335C32.6995 3.3612 32.6995 4.45212 31.9703 5.17827C31.6066 5.54134 31.1506 5.72373 30.6946 5.72373C30.2387 5.72373 29.7844 5.54134 29.419 5.17827C28.6898 4.54246 28.6898 3.3595 29.419 2.63335V2.63335ZM4.91822 32.1785C4.55448 32.5416 4.09851 32.724 3.64255 32.724C3.18659 32.724 2.73233 32.5416 2.36688 32.1785C2.00314 31.9058 1.82041 31.4507 1.82041 30.9052C1.82041 30.4501 2.00314 29.9967 2.36688 29.6319C2.73063 29.2671 3.18659 29.0864 3.64255 29.0864C4.09851 29.0864 4.55277 29.2688 4.91822 29.6319C5.64742 30.3597 5.64742 31.541 4.91822 32.1768V32.1785ZM17.1234 19.3602L15.2107 17.4511L17.1234 15.542L19.036 17.4511L17.1234 19.3602V19.3602ZM45.5398 21.2692L43.6272 19.36L45.5398 17.4509L47.4525 19.36L45.5398 21.2692V21.2692Z" fill="#333333"/>
</svg>
